<svg width="282" height="97" xmlns="http://www.w3.org/2000/svg" xmlns:xlink="http://www.w3.org/1999/xlink" overflow="hidden"><defs><clipPath id="clip0"><rect x="543" y="568" width="282" height="97"/></clipPath></defs><g clip-path="url(#clip0)" transform="translate(-543 -568)"><rect x="544" y="569" width="281" height="95" fill="#FFFFFF"/><path d="M559.475 580.495 817.475 580.495 817.475 656.495 559.475 656.495Z" stroke="#262261" stroke-width="1.33333" stroke-miterlimit="8" fill="#FFFFFF" fill-rule="evenodd"/><text font-family="Consolas,Consolas_MSFontService,sans-serif" font-weight="400" font-size="14" transform="translate(587.392 593)">Document<tspan font-family="Calibri,Calibri_MSFontService,sans-serif" font-weight="700" font-size="14" x="20.1837" y="52">file </tspan><tspan font-family="Calibri,Calibri_MSFontService,sans-serif" font-weight="700" font-size="14" x="41.8504" y="52">[blobs]</tspan><tspan fill="#FF0000" font-family="Calibri,Calibri_MSFontService,sans-serif" font-weight="700" font-size="11" x="-0.0894775" y="15">mediaType</tspan><tspan font-family="Calibri,Calibri_MSFontService,sans-serif" font-weight="700" font-size="11" x="48.9105" y="15">: </tspan><tspan fill="#C00000" font-family="Calibri,Calibri_MSFontService,sans-serif" font-weight="700" font-size="11" x="58.9105" y="15">application/</tspan><tspan fill="#C00000" font-family="Calibri,Calibri_MSFontService,sans-serif" font-weight="700" font-size="11" x="113.077" y="15">oci.distribution.</tspan><tspan fill="#C00000" font-family="Calibri,Calibri_MSFontService,sans-serif" font-weight="700" font-size="11" x="183.411" y="15">manifest</tspan><tspan fill="#FF0000" font-family="Calibri,Calibri_MSFontService,sans-serif" font-weight="700" font-size="11" x="-0.0894775" y="28">artifactType</tspan><tspan font-family="Calibri,Calibri_MSFontService,sans-serif" font-weight="700" font-size="11" x="53.5772" y="28">: </tspan><tspan fill="#C00000" font-family="Calibri,Calibri_MSFontService,sans-serif" font-weight="700" font-size="11" x="58.9105" y="28">application/</tspan><tspan fill="#C00000" font-family="Calibri,Calibri_MSFontService,sans-serif" font-weight="700" font-size="11" x="113.077" y="28">x.example.document</tspan></text><path d="M601.439 640.953 568.167 640.953 568.167 604.5 568.833 604.5 568.833 640.62 568.5 640.286 601.439 640.286ZM600.106 636.62 608.106 640.62 600.106 644.62Z" fill="#4472C4"/><rect x="551" y="572" width="32" height="34" fill="#FFFFFF"/><path d="M0 6 4.6 0 23 0 23 30 0 30Z" stroke="#2F528F" stroke-width="1.33333" stroke-miterlimit="8" fill="#FFFFFF" fill-rule="evenodd" transform="matrix(-1 0 0 1 579.5 574.5)"/></g></svg>