<svg width="353" height="248" xmlns="http://www.w3.org/2000/svg" xmlns:xlink="http://www.w3.org/1999/xlink" overflow="hidden"><defs><clipPath id="clip0"><rect x="557" y="303" width="353" height="248"/></clipPath><clipPath id="clip1"><rect x="569" y="307" width="62" height="42"/></clipPath><clipPath id="clip2"><rect x="569" y="307" width="62" height="42"/></clipPath><clipPath id="clip3"><rect x="569" y="297" width="62" height="62"/></clipPath><clipPath id="clip4"><rect x="625" y="440" width="34" height="33"/></clipPath><clipPath id="clip5"><rect x="625" y="440" width="34" height="33"/></clipPath><clipPath id="clip6"><rect x="624" y="440" width="36" height="33"/></clipPath><clipPath id="clip7"><rect x="624" y="440" width="36" height="33"/></clipPath></defs><g clip-path="url(#clip0)" transform="translate(-557 -303)"><rect x="558" y="303" width="351" height="247" fill="#FFFFFF"/><path d="M588.5 418.5 583 428.5 577.5 418.5Z" stroke="#4472C4" stroke-width="1.33333" stroke-miterlimit="8" fill="none" fill-rule="evenodd"/><path d="M577.473 314.492 857.473 314.492 857.473 427.492 577.473 427.492Z" stroke="#262261" stroke-width="1.33333" stroke-miterlimit="8" fill="#FFFFFF" fill-rule="evenodd"/><text font-family="Consolas,Consolas_MSFontService,sans-serif" font-weight="400" font-size="24" transform="translate(634.536 337)">net-<tspan font-size="24" x="52.6666" y="0">monitor:</tspan><tspan font-size="24" x="158" y="0">v1</tspan></text><path d="M622.349 306.992 635.438 316.436C635.621 324.886 635.793 333.335 635.977 341.785L578.523 348.992 567.031 341.039C566.848 332.424 567.203 322.815 567.031 314.199L622.349 306.992Z" fill="#FFFFFF" fill-rule="evenodd"/><g clip-path="url(#clip1)"><g clip-path="url(#clip2)"><g clip-path="url(#clip3)"><path d="M60.7237 43.3278 60.1416 23.1513 12.3517 29.6181 12.869 50.0534 60.7237 43.3278ZM57.0376 27.4841 57.4256 40.0944 53.9335 40.6118 53.5455 28.0014 57.0376 27.4841ZM48.178 28.7128 48.566 41.3231 45.0739 41.8405 44.6859 29.2301 48.178 28.7128ZM39.3184 29.9415 39.7064 42.5518 36.2143 43.0692 35.8263 30.4588 39.3184 29.9415ZM30.4588 31.2348 30.8468 43.8452 27.3547 44.3625 26.9667 31.6875 30.4588 31.2348ZM21.5993 32.4636 21.9873 45.0739 18.4952 45.5912 18.1072 32.9809 21.5993 32.4636Z" fill="#262261" transform="matrix(1.01346 0 0 1 569 297.412)"/><path d="M0.905358 41.9051 9.05358 47.79 8.6009 28.9715 0.323342 23.0866Z" fill="#262261" transform="matrix(1.01346 0 0 1 569 297.412)"/><path d="M58.6543 19.5299 48.566 12.3517 1.16403 19.0125 10.929 25.9967Z" fill="#262261" transform="matrix(1.01346 0 0 1 569 297.412)"/></g></g></g><text font-family="Calibri,Calibri_MSFontService,sans-serif" font-weight="700" font-size="14" transform="translate(615.081 397)">layer1 (blob)<tspan font-size="14" x="-0.859802" y="22">layer2 (blob)</tspan></text><path d="M608.97 392.597 600.167 392.597 600.167 349.5 600.833 349.5 600.833 392.264 600.5 391.93 608.97 391.93ZM607.637 388.264 615.637 392.264 607.637 396.264Z" fill="#4472C4"/><path d="M608.11 414.592 600.167 414.592 600.167 349.5 600.833 349.5 600.833 414.259 600.5 413.925 608.11 413.925ZM606.777 410.259 614.777 414.259 606.777 418.259Z" fill="#4472C4"/><text font-family="Calibri,Calibri_MSFontService,sans-serif" font-weight="700" font-size="14" transform="translate(614.221 376)">config (blob)</text><path d="M608.11 371.548 600.167 371.548 600.167 349.5 600.833 349.5 600.833 371.215 600.5 370.881 608.11 370.881ZM606.777 367.215 614.777 371.215 606.777 375.215Z" fill="#4472C4"/><text fill="#FF0000" font-family="Calibri,Calibri_MSFontService,sans-serif" font-weight="700" font-size="11" transform="translate(636.88 351)">mediaType<tspan fill="#000000" font-size="11" x="49" y="0">: </tspan><tspan fill="#C00000" font-size="11" x="54.3334" y="0">application/</tspan><tspan fill="#C00000" font-size="11" x="108.5" y="0">vnd</tspan><tspan fill="#C00000" font-size="11" x="124.833" y="0">.</tspan><tspan fill="#C00000" font-size="11" x="127.667" y="0">oci</tspan><tspan fill="#C00000" font-size="11" x="140.5" y="0">.image.manifest</tspan></text><path d="M633.474 447.494 897.474 447.494 897.474 540.494 633.474 540.494Z" stroke="#262261" stroke-width="1.33333" stroke-miterlimit="8" fill="#FFFFFF" fill-rule="evenodd"/><text font-family="Consolas,Consolas_MSFontService,sans-serif" font-weight="400" font-size="14" transform="translate(661.818 460)">SBoM<tspan font-size="14" x="38.3333" y="0">Document</tspan><tspan font-family="Calibri,Calibri_MSFontService,sans-serif" font-weight="700" font-size="14" x="20.1837" y="49">sbom</tspan><tspan font-family="Calibri,Calibri_MSFontService,sans-serif" font-weight="700" font-size="14" x="55.3504" y="49">[blobs]</tspan></text><path d="M675.6 505.54 646.167 505.54 646.167 454.5 646.833 454.5 646.833 505.206 646.5 504.873 675.6 504.873ZM674.267 501.206 682.267 505.206 674.267 509.206Z" fill="#4472C4"/><text font-family="Calibri,Calibri_MSFontService,sans-serif" font-weight="700" font-size="14" transform="translate(682.071 532)">reference [manifests]<tspan fill="#FF0000" font-size="11" x="-20.342" y="-57">mediaType</tspan><tspan font-size="11" x="28.658" y="-57">:   </tspan><tspan fill="#C00000" font-size="11" x="38.658" y="-57">application/</tspan><tspan fill="#C00000" font-size="11" x="92.8246" y="-57">oci.distribution.manifest</tspan><tspan fill="#FF0000" font-size="11" x="-20.342" y="-44">artifactType</tspan><tspan font-size="11" x="33.3246" y="-44">: </tspan><tspan fill="#C00000" font-size="11" x="38.658" y="-44">application/</tspan><tspan fill="#C00000" font-size="11" x="92.8246" y="-44">x.example.document</tspan></text><g clip-path="url(#clip4)"><g clip-path="url(#clip5)"><g clip-path="url(#clip6)"><g clip-path="url(#clip7)"><path d="M0 0 24.4444 0 24.4444 17.6428C12.2222 17.6428 12.2222 24.365 0 20.5456Z" stroke="#262261" stroke-width="0.814813" stroke-miterlimit="8" fill="#FFFFFF" fill-rule="evenodd" transform="matrix(-1.03236 0 0 1 655.249 445.806)"/><text font-family="Calibri,Calibri_MSFontService,sans-serif" font-weight="400" font-size="19" transform="matrix(0.630893 0 0 0.611111 631.084 454)">S<tspan font-size="19" x="7.41524" y="4.90909">B</tspan><tspan font-size="19" x="15.6819" y="9.81818">o</tspan><tspan font-size="16" x="22.0859" y="18">M</tspan></text></g></g></g></g><path d="M682.251 528.959 582 528.959 582 434.667 584 434.667 584 527.959 583 526.959 682.251 526.959ZM579 436 583 428 587 436Z" fill="#4472C4"/></g></svg>